<mxfile host="65bd71144e">
    <diagram id="w1cwfyKInWAbl5WBd-np" name="Website idea">
        <mxGraphModel dx="476" dy="308" grid="1" gridSize="10" guides="1" tooltips="1" connect="1" arrows="1" fold="1" page="1" pageScale="1" pageWidth="850" pageHeight="1100" math="0" shadow="0">
            <root>
                <mxCell id="0"/>
                <mxCell id="1" parent="0"/>
                <mxCell id="97kSb_biOn8DL4Hgh1oo-1" value="" style="whiteSpace=wrap;html=1;aspect=fixed;" vertex="1" parent="1">
                    <mxGeometry x="250" y="170" width="350" height="350" as="geometry"/>
                </mxCell>
                <mxCell id="97kSb_biOn8DL4Hgh1oo-2" value="Cork Trail" style="ellipse;whiteSpace=wrap;html=1;" vertex="1" parent="1">
                    <mxGeometry x="250" y="170" width="70" height="40" as="geometry"/>
                </mxCell>
                <mxCell id="97kSb_biOn8DL4Hgh1oo-3" value="Where and when" style="rounded=1;whiteSpace=wrap;html=1;" vertex="1" parent="1">
                    <mxGeometry x="328" y="210" width="195" height="40" as="geometry"/>
                </mxCell>
                <mxCell id="97kSb_biOn8DL4Hgh1oo-4" value="Popular" style="rounded=1;whiteSpace=wrap;html=1;" vertex="1" parent="1">
                    <mxGeometry x="278" y="280" width="120" height="20" as="geometry"/>
                </mxCell>
                <mxCell id="97kSb_biOn8DL4Hgh1oo-9" value="" style="whiteSpace=wrap;html=1;aspect=fixed;" vertex="1" parent="1">
                    <mxGeometry x="523" y="310" width="50" height="50" as="geometry"/>
                </mxCell>
                <mxCell id="97kSb_biOn8DL4Hgh1oo-11" value="" style="whiteSpace=wrap;html=1;aspect=fixed;" vertex="1" parent="1">
                    <mxGeometry x="460" y="310" width="50" height="50" as="geometry"/>
                </mxCell>
                <mxCell id="97kSb_biOn8DL4Hgh1oo-12" value="" style="whiteSpace=wrap;html=1;aspect=fixed;" vertex="1" parent="1">
                    <mxGeometry x="400.5" y="310" width="50" height="50" as="geometry"/>
                </mxCell>
                <mxCell id="97kSb_biOn8DL4Hgh1oo-13" value="" style="whiteSpace=wrap;html=1;aspect=fixed;" vertex="1" parent="1">
                    <mxGeometry x="340" y="310" width="50" height="50" as="geometry"/>
                </mxCell>
                <mxCell id="97kSb_biOn8DL4Hgh1oo-14" value="" style="whiteSpace=wrap;html=1;aspect=fixed;" vertex="1" parent="1">
                    <mxGeometry x="278" y="310" width="50" height="50" as="geometry"/>
                </mxCell>
                <mxCell id="97kSb_biOn8DL4Hgh1oo-15" value="Login" style="triangle;whiteSpace=wrap;html=1;" vertex="1" parent="1">
                    <mxGeometry x="553" y="180" width="47" height="40" as="geometry"/>
                </mxCell>
            </root>
        </mxGraphModel>
    </diagram>
    <diagram id="RDSbSZ1k3cjCadN6Grqg" name="Mobile App">
        <mxGraphModel dx="1428" dy="924" grid="1" gridSize="10" guides="1" tooltips="1" connect="1" arrows="1" fold="1" page="1" pageScale="1" pageWidth="850" pageHeight="1100" math="0" shadow="0">
            <root>
                <mxCell id="0"/>
                <mxCell id="1" parent="0"/>
            </root>
        </mxGraphModel>
    </diagram>
    <diagram id="THlknrSwDXFCjx9uC75X" name="Page-3">
        <mxGraphModel dx="1428" dy="924" grid="1" gridSize="10" guides="1" tooltips="1" connect="1" arrows="1" fold="1" page="1" pageScale="1" pageWidth="850" pageHeight="1100" math="0" shadow="0">
            <root>
                <mxCell id="0"/>
                <mxCell id="1" parent="0"/>
            </root>
        </mxGraphModel>
    </diagram>
    <diagram id="YC159z3pM1k_Y87wfguL" name="Page-4">
        <mxGraphModel dx="1428" dy="924" grid="1" gridSize="10" guides="1" tooltips="1" connect="1" arrows="1" fold="1" page="1" pageScale="1" pageWidth="850" pageHeight="1100" math="0" shadow="0">
            <root>
                <mxCell id="0"/>
                <mxCell id="1" parent="0"/>
            </root>
        </mxGraphModel>
    </diagram>
    <diagram id="_DxfrQu0YBdwuPtdDpkx" name="Page-5">
        <mxGraphModel dx="1428" dy="924" grid="1" gridSize="10" guides="1" tooltips="1" connect="1" arrows="1" fold="1" page="1" pageScale="1" pageWidth="850" pageHeight="1100" math="0" shadow="0">
            <root>
                <mxCell id="0"/>
                <mxCell id="1" parent="0"/>
            </root>
        </mxGraphModel>
    </diagram>
</mxfile>